
____________________________________________________________________________________
Forget To Forget Remember To Remember ! If My Friends Remember To Forget Me,I Never

Forget To Remember Them ! My Enemies Are My Best Friends. Thanks.
___________________________________________________________________________________




Upcoming Movies :



Laptop (2012) - Original DVD RIP

Bandor Bonti Bonti Bole Dhonti Dhukabar Motlob (1937)

Book Diye Tikbi Na Re Salara (1984)

Spader Tekka Baki Ache (1933)

Nirupai Sabjantu Asore Nemeche (1988)

Sob Bol Bocchon Bandh (1949)

Maobadi Bhelebaba Mrito Gariyar More (1961)

Amay Dhorte Parbina Sabjantu (1949)

Goray Gondogol (2012)

Chatrak (2011)

Khokababu (2012)



Screens :


 
http://www.shotpix.com/images/49843052542737595605.png
 
http://www.shotpix.com/images/72430125614514682951.png
 
http://www.shotpix.com/images/11197833363705900786.png
 
http://www.shotpix.com/images/65091337348655573945.jpg
 
http://www.shotpix.com/images/95745002083358163436.jpeg
 
http://www.shotpix.com/images/79309385783620440133.jpg



Extra Screens :


 
http://www.shotpix.com/images/43477419818858082233.jpg
 
http://www.shotpix.com/images/87268054326169004611.jpg
 
http://www.shotpix.com/images/17500389535722887674.jpg
 
http://www.shotpix.com/images/23603788300725060089.jpg
 
http://www.shotpix.com/images/68884657766521674783.jpg



Media Info :



Format                           : AVI
Format/Info                      : Audio Video Interleave
File size                        : 699 MiB
Duration                         : 2h 7mn
Overall bit rate                 : 769 Kbps

Video
ID                               : 0
Format                           : MPEG-4 Visual
Format settings, QPel            : No
Format settings, GMC             : No warppoints
Format settings, Matrix          : Custom
Codec ID                         : XVID
Codec ID/Hint                    : XviD
Duration                         : 2h 7mn
Bit rate                         : 644 Kbps
Width                            : 608 pixels
Height                           : 272 pixels
Display aspect ratio             : 2.25:1
Frame rate                       : 29.970 fps
Color space                      : YUV
Chroma subsampling               : 4:2:0
Bit depth                        : 8 bits
Scan type                        : Progressive
Compression mode                 : Lossy
Bits/(Pixel*Frame)               : 0.130
Stream size                      : 585 MiB (84%)

Audio
ID                               : 1
Format                           : MPEG Audio
Format version                   : Version 1
Format profile                   : Layer 3
Mode                             : Joint stereo
Mode extension                   : MS Stereo
Codec ID                         : 55
Codec ID/Hint                    : MP3
Duration                         : 2h 7mn
Bit rate mode                    : Variable
Bit rate                         : 111 Kbps
Nominal bit rate                 : 128 Kbps
Channel(s)                       : 2 channels
Sampling rate                    : 48.0 KHz
Compression mode                 : Lossy
Stream size                      : 101 MiB (14%)
Alignment                        : Aligned on interleaves
Interleave, duration             : 24 ms (0.72 video frame)
Interleave, preload duration     : 165 ms



____________________________________________________________________________________
Forget To Forget Remember To Remember! If My Friends Remember To Forget Me,I Never

Forget To Remember Them ! My Enemies Are My Best Friends. Thanks.
___________________________________________________________________________________



